# xmcd
#
# Track frame offsets: 
#        150
#        18156
#        34030
#        50243
#        65106
#        83746
#        104542
#        123850
#        133932
#        149986
#        168863
#        186908
#        203583
#        222449
#        240540
#        258667
#        276287
#        292381
#        309462
#        328225
#        342374
#
# Disc length: 4793 seconds
#
# Revision: 0
# Processed by: cddbd v1.5.2PL0 Copyright (c) Steve Scherf et al.
# Submitted via: ExactAudioCopy v0.99pb4
#
DISCID=5b12b715
DTITLE=Various Artist - prevue promo 1118A-2
DYEAR=2003
DGENRE=pop
TTITLE0=Amy Grant - Simple Things
TTITLE1=Lisa Marie Presley - Sinking In(Edit)
TTITLE2=Hilary Duff - So Yesterday
TTITLE3=Hot Action Cop - Don't Want Her To Stay
TTITLE4=Becky Baeling - Heaven Is A Place On Earth
TTITLE5=Justin Timberlake - Senorita(Radio Edit)
TTITLE6=Justin Timberlake - Senorita(Radio Edit - Short Intro)
TTITLE7=Cafe Tacvba - EO
TTITLE8=Lumidee feat. Busta Rhymes and Fabolous - Uh Oooh(Remix)
TTITLE9=Da Brat - Boom(LYRIC CONTENT - "Radio Mix - Super Clean")
TTITLE10=Baby Beesh feat Frankie J - Suga Suga
TTITLE11=Busta Rhymes feat. Pharrell Williams and Chad Hugo - Light You'
TTITLE11=re A** On Fire(LYRICS - "Radio - Super Clean")
TTITLE12=50 Cent feat. Snoop Dogg and Lloyd Banks and Young Buck Of G-Un
TTITLE12=it - P.I.M.P(Album Version Clean)
TTITLE13=Gus Black - Dry Kisses
TTITLE14=Daryl Hall - Cab Driver
TTITLE15=Anna Wilson - Bus Ride, The
TTITLE16=Porcupine Tree - Sound Of Muzak, The
TTITLE17=Leaves - Crazy
TTITLE18=311 - Creatures (For A While)
TTITLE19=Dashboard Confessional - Hands Down
TTITLE20=Foo Fighters - Low(Edit)
EXTD=
EXTT0=
EXTT1=
EXTT2=
EXTT3=
EXTT4=
EXTT5=
EXTT6=
EXTT7=
EXTT8=
EXTT9=
EXTT10=
EXTT11=
EXTT12=
EXTT13=
EXTT14=
EXTT15=
EXTT16=
EXTT17=
EXTT18=
EXTT19=
EXTT20=
PLAYORDER=
